<mxfile host="app.diagrams.net" modified="2023-10-06T05:06:07.963Z" agent="Mozilla/5.0 (Macintosh; Intel Mac OS X 10_15_7) AppleWebKit/537.36 (KHTML, like Gecko) Chrome/117.0.0.0 Safari/537.36" etag="Hf4WEt5tX0Wt_Vkw0weQ" version="22.0.3" type="github">
  <diagram name="Page-1" id="e7e014a7-5840-1c2e-5031-d8a46d1fe8dd">
    <mxGraphModel dx="1509" dy="955" grid="1" gridSize="10" guides="1" tooltips="1" connect="1" arrows="1" fold="1" page="1" pageScale="1" pageWidth="1169" pageHeight="826" background="none" math="0" shadow="0">
      <root>
        <mxCell id="0" />
        <mxCell id="1" parent="0" />
        <mxCell id="5" value="" style="ellipse;shape=startState;fillColor=#000000;strokeColor=#ff0000;" parent="1" vertex="1">
          <mxGeometry x="10" y="106.42" width="50" height="49.05" as="geometry" />
        </mxCell>
        <mxCell id="6" value="" style="edgeStyle=elbowEdgeStyle;elbow=horizontal;verticalAlign=bottom;endArrow=open;endSize=8;strokeColor=#FF0000;endFill=1;rounded=0" parent="1" source="5" target="7" edge="1">
          <mxGeometry x="264.5" y="168" as="geometry">
            <mxPoint x="279.5" y="238" as="targetPoint" />
          </mxGeometry>
        </mxCell>
        <mxCell id="YkimzeBHJODn-NqLZ_Dq-51" value="" style="group" vertex="1" connectable="0" parent="1">
          <mxGeometry x="80" y="40" width="1000" height="720" as="geometry" />
        </mxCell>
        <mxCell id="2" value="khách hàng" style="swimlane;whiteSpace=wrap" parent="YkimzeBHJODn-NqLZ_Dq-51" vertex="1">
          <mxGeometry width="270" height="720" as="geometry" />
        </mxCell>
        <mxCell id="7" value="Đưa thẻ vào máy" style="" parent="2" vertex="1">
          <mxGeometry x="69.52047619047619" y="59.36842105263159" width="130.95238095238096" height="63.15789473684212" as="geometry" />
        </mxCell>
        <mxCell id="8" value="Nhập số pin" style="" parent="2" vertex="1">
          <mxGeometry x="69.52047619047619" y="166.73684210526318" width="130.95238095238096" height="63.15789473684212" as="geometry" />
        </mxCell>
        <mxCell id="9" value="" style="endArrow=open;strokeColor=#FF0000;endFill=1;rounded=0" parent="2" source="7" target="8" edge="1">
          <mxGeometry relative="1" as="geometry" />
        </mxCell>
        <mxCell id="YkimzeBHJODn-NqLZ_Dq-72" value="Chọn giao dịch" style="" vertex="1" parent="2">
          <mxGeometry x="50.47" y="310" width="150" height="35" as="geometry" />
        </mxCell>
        <mxCell id="YkimzeBHJODn-NqLZ_Dq-75" value="" style="shape=line;html=1;strokeWidth=6;strokeColor=#ff0000;" vertex="1" parent="2">
          <mxGeometry x="60" y="360" width="130" height="7" as="geometry" />
        </mxCell>
        <mxCell id="YkimzeBHJODn-NqLZ_Dq-76" value="" style="edgeStyle=orthogonalEdgeStyle;html=1;verticalAlign=bottom;endArrow=open;endSize=8;strokeColor=#ff0000;rounded=0;exitX=0.5;exitY=0.827;exitDx=0;exitDy=0;exitPerimeter=0;" edge="1" source="YkimzeBHJODn-NqLZ_Dq-75" parent="2">
          <mxGeometry relative="1" as="geometry">
            <mxPoint x="125" y="400" as="targetPoint" />
          </mxGeometry>
        </mxCell>
        <mxCell id="3" value="Cây ATM" style="swimlane;whiteSpace=wrap" parent="YkimzeBHJODn-NqLZ_Dq-51" vertex="1">
          <mxGeometry x="270" width="500" height="720" as="geometry" />
        </mxCell>
        <mxCell id="15" value="Kiểm tra tài khoản" style="" parent="3" vertex="1">
          <mxGeometry x="152.8557142857143" y="166.73684210526318" width="130.95238095238096" height="63.15789473684212" as="geometry" />
        </mxCell>
        <mxCell id="YkimzeBHJODn-NqLZ_Dq-49" value="" style="endArrow=open;strokeColor=#FF0000;endFill=1;rounded=0;exitX=0.5;exitY=1;exitDx=0;exitDy=0;entryX=0.5;entryY=0;entryDx=0;entryDy=0;" edge="1" parent="3" source="15" target="YkimzeBHJODn-NqLZ_Dq-52">
          <mxGeometry relative="1" as="geometry">
            <mxPoint x="-88.69047619047619" y="210.94736842105266" as="sourcePoint" />
            <mxPoint x="167.26785714285728" y="255.15789473684208" as="targetPoint" />
          </mxGeometry>
        </mxCell>
        <mxCell id="YkimzeBHJODn-NqLZ_Dq-52" value="" style="rhombus;whiteSpace=wrap;html=1;fontColor=#000000;fillColor=#ffffc0;strokeColor=#ff0000;" vertex="1" parent="3">
          <mxGeometry x="49.996666666666705" y="250" width="80" height="40" as="geometry" />
        </mxCell>
        <mxCell id="YkimzeBHJODn-NqLZ_Dq-61" value="Thông báo xác thực sai" style="" vertex="1" parent="3">
          <mxGeometry x="250" y="252.5" width="150" height="35" as="geometry" />
        </mxCell>
        <mxCell id="YkimzeBHJODn-NqLZ_Dq-68" value="Hiển thị các giao dịch" style="" vertex="1" parent="3">
          <mxGeometry x="15" y="310" width="150" height="35" as="geometry" />
        </mxCell>
        <mxCell id="4" value="Ngân hàng" style="swimlane;whiteSpace=wrap" parent="YkimzeBHJODn-NqLZ_Dq-51" vertex="1">
          <mxGeometry x="770" width="230" height="720" as="geometry" />
        </mxCell>
        <mxCell id="YkimzeBHJODn-NqLZ_Dq-44" value="CSDL Tài khoản KH" style="" vertex="1" parent="4">
          <mxGeometry x="49.52047619047619" y="166.73684210526318" width="130.95238095238096" height="63.15789473684212" as="geometry" />
        </mxCell>
        <mxCell id="YkimzeBHJODn-NqLZ_Dq-67" value="" style="endArrow=open;strokeColor=#FF0000;endFill=1;rounded=0;exitX=1;exitY=0.5;exitDx=0;exitDy=0;entryX=0.496;entryY=0.074;entryDx=0;entryDy=0;entryPerimeter=0;" edge="1" parent="4" target="YkimzeBHJODn-NqLZ_Dq-65">
          <mxGeometry relative="1" as="geometry">
            <mxPoint x="-100" y="269.40999999999997" as="sourcePoint" />
            <mxPoint x="270" y="350" as="targetPoint" />
            <Array as="points">
              <mxPoint x="275" y="270" />
            </Array>
          </mxGeometry>
        </mxCell>
        <mxCell id="YkimzeBHJODn-NqLZ_Dq-43" value="" style="endArrow=open;strokeColor=#FF0000;endFill=1;rounded=0;exitX=1;exitY=0.5;exitDx=0;exitDy=0;entryX=0;entryY=0.5;entryDx=0;entryDy=0;" edge="1" parent="YkimzeBHJODn-NqLZ_Dq-51" source="8" target="15">
          <mxGeometry relative="1" as="geometry">
            <mxPoint x="630.3571428571429" y="515.3684210526316" as="sourcePoint" />
            <mxPoint x="630.3571428571429" y="584.842105263158" as="targetPoint" />
          </mxGeometry>
        </mxCell>
        <mxCell id="YkimzeBHJODn-NqLZ_Dq-45" value="" style="endArrow=none;strokeColor=#FF0000;endFill=0;rounded=0;dashed=1;exitX=1;exitY=0.5;exitDx=0;exitDy=0;entryX=0;entryY=0.5;entryDx=0;entryDy=0;" edge="1" parent="YkimzeBHJODn-NqLZ_Dq-51" source="15" target="YkimzeBHJODn-NqLZ_Dq-44">
          <mxGeometry relative="1" as="geometry">
            <mxPoint x="644.6428571428572" y="648" as="sourcePoint" />
            <mxPoint x="711.3095238095239" y="793.263157894737" as="targetPoint" />
          </mxGeometry>
        </mxCell>
        <mxCell id="YkimzeBHJODn-NqLZ_Dq-71" value="" style="endArrow=open;strokeColor=#FF0000;endFill=1;rounded=0;exitX=0;exitY=0.5;exitDx=0;exitDy=0;entryX=1;entryY=0.5;entryDx=0;entryDy=0;" edge="1" parent="YkimzeBHJODn-NqLZ_Dq-51" source="YkimzeBHJODn-NqLZ_Dq-68" target="YkimzeBHJODn-NqLZ_Dq-72">
          <mxGeometry relative="1" as="geometry">
            <mxPoint x="210" y="208" as="sourcePoint" />
            <mxPoint x="200" y="330" as="targetPoint" />
          </mxGeometry>
        </mxCell>
        <mxCell id="YkimzeBHJODn-NqLZ_Dq-53" value="" style="edgeStyle=orthogonalEdgeStyle;html=1;align=left;verticalAlign=bottom;endArrow=open;endSize=8;strokeColor=#ff0000;rounded=0;" edge="1" source="YkimzeBHJODn-NqLZ_Dq-52" parent="1">
          <mxGeometry x="-1" relative="1" as="geometry">
            <mxPoint x="600" y="310" as="targetPoint" />
          </mxGeometry>
        </mxCell>
        <mxCell id="YkimzeBHJODn-NqLZ_Dq-60" value="Sai" style="edgeLabel;html=1;align=center;verticalAlign=middle;resizable=0;points=[];" vertex="1" connectable="0" parent="YkimzeBHJODn-NqLZ_Dq-53">
          <mxGeometry x="-0.4114" relative="1" as="geometry">
            <mxPoint as="offset" />
          </mxGeometry>
        </mxCell>
        <mxCell id="YkimzeBHJODn-NqLZ_Dq-54" value="" style="edgeStyle=orthogonalEdgeStyle;html=1;align=left;verticalAlign=top;endArrow=open;endSize=8;strokeColor=#ff0000;rounded=0;" edge="1" source="YkimzeBHJODn-NqLZ_Dq-52" parent="1">
          <mxGeometry x="-1" relative="1" as="geometry">
            <mxPoint x="402.73" y="350" as="targetPoint" />
            <Array as="points">
              <mxPoint x="402.73" y="310" />
            </Array>
          </mxGeometry>
        </mxCell>
        <mxCell id="YkimzeBHJODn-NqLZ_Dq-58" value="Đúng" style="edgeLabel;html=1;align=center;verticalAlign=middle;resizable=0;points=[];" vertex="1" connectable="0" parent="YkimzeBHJODn-NqLZ_Dq-54">
          <mxGeometry x="-0.3917" y="1" relative="1" as="geometry">
            <mxPoint as="offset" />
          </mxGeometry>
        </mxCell>
        <mxCell id="YkimzeBHJODn-NqLZ_Dq-65" value="" style="ellipse;shape=startState;fillColor=#000000;strokeColor=#ff0000;" vertex="1" parent="1">
          <mxGeometry x="1100" y="375.47" width="50" height="49.05" as="geometry" />
        </mxCell>
      </root>
    </mxGraphModel>
  </diagram>
</mxfile>
